<svg width="29" height="30" fill="none" xmlns="http://www.w3.org/2000/svg"><path d="M.27 15.19c0 7.88 6.41 14.29 14.29 14.29 7.88 0 14.29-6.41 14.29-14.29C28.85 7.31 22.44.9 14.56.9 6.68.9.27 7.31.27 15.19z" fill="url(#paint0_linear)"/><path d="M23.86 10.89l-2.63-2.63c-.26-.26-.55-.22-.86.09l-7.89 7.9-3.72-3.72c-.31-.31-.6-.36-.86-.1l-2.63 2.63c-.26.26-.21.55.1.86l7.06 7.06 11.33-11.23c.31-.31.36-.6.1-.86z" fill="#fff"/><defs><linearGradient id="paint0_linear" x1="19.828" y1="-10.815" x2="11.828" y2="28.685" gradientUnits="userSpaceOnUse"><stop stop-color="#3BA2DB"/><stop offset=".281" stop-color="#38A0DA"/><stop offset=".528" stop-color="#2D98D5"/><stop offset=".762" stop-color="#1B8CCD"/><stop offset=".988" stop-color="#027BC3"/><stop offset="1" stop-color="#007AC2"/></linearGradient></defs></svg>